<svg xmlns="http://www.w3.org/2000/svg" width="24" height="34" viewBox="0 0 24 34" fill="none">
    <g clip-path="url(#clip0_2502_2)">
        <path
            d="M0 28.3334C0 25.2038 2.68632 22.6667 6 22.6667H12V28.3334C12 31.4629 9.31368 34 6 34C2.68632 34 0 31.4629 0 28.3334Z"
            fill="#24CB71" />
        <path d="M12 0V11.3333H18C21.3137 11.3333 24 8.79625 24 5.66667C24 2.53708 21.3137 0 18 0H12Z" fill="#FF7237" />
        <path
            d="M17.9501 22.6666C21.2638 22.6666 23.9501 20.1296 23.9501 17C23.9501 13.8704 21.2638 11.3333 17.9501 11.3333C14.6364 11.3333 11.9501 13.8704 11.9501 17C11.9501 20.1296 14.6364 22.6666 17.9501 22.6666Z"
            fill="#00B6FF" />
        <path d="M0 5.66667C0 8.79625 2.68632 11.3333 6 11.3333H12V0H6C2.68632 0 0 2.53708 0 5.66667Z" fill="#FF3737" />
        <path d="M0 17C0 20.1296 2.68632 22.6666 6 22.6666H12V11.3333H6C2.68632 11.3333 0 13.8704 0 17Z"
            fill="#874FFF" />
    </g>
    <defs>
        <clipPath id="clip0_2502_2">
            <rect width="24" height="34" fill="white" />
        </clipPath>
    </defs>
</svg>