<svg xmlns="http://www.w3.org/2000/svg" width="18" height="22" viewBox="0 0 18 22" fill="none" foxified="">
    <path
        d="M17.3741 6.96783L7.30634 20.9423C6.84429 21.5769 6.16338 21.9339 5.43383 21.9471L1.4213 22C1.20243 22 1.02004 21.8413 0.971406 21.6166L0.0594674 17.3727C-0.098602 16.5926 0.0594674 15.7862 0.521516 15.1648L7.65896 5.24911C7.78055 5.09046 7.99941 5.06534 8.14532 5.183L11.1486 7.74786C11.3432 7.91973 11.6107 8.01228 11.8903 7.97262C12.4861 7.89329 12.8874 7.31157 12.8266 6.69019C12.7901 6.37289 12.6442 6.10847 12.4497 5.91015C12.3889 5.85727 9.53147 3.39818 9.53147 3.39818C9.34908 3.23953 9.3126 2.94867 9.45851 2.75168L10.5893 1.17707C11.635 -0.264011 13.4589 -0.39622 14.9301 0.859766L16.6203 2.30085C17.3133 2.88257 17.7754 3.64938 17.9335 4.45585C18.1159 5.34298 17.9213 6.21423 17.3741 6.96783Z"
        fill="#202020" />
</svg>