<svg xmlns="http://www.w3.org/2000/svg" width="18" height="22" viewBox="0 0 18 22" fill="none" foxified="">
    <path
        d="M14.7693 5.78947C14.7693 8.98691 12.1863 11.5789 9 11.5789C5.8137 11.5789 3.23069 8.98691 3.23069 5.78947C3.23069 2.59204 5.8137 0 9 0C12.1863 0 14.7693 2.59204 14.7693 5.78947Z"
        fill="#202020" />
    <path
        d="M15.9232 22C17.1977 22 18.2593 20.9474 17.9439 19.7082C17.5373 18.1103 16.709 16.6359 15.5272 15.45C13.7961 13.7128 11.4482 12.7368 9 12.7368C6.55181 12.7368 4.2039 13.7128 2.47277 15.45C1.29097 16.6359 0.462715 18.1103 0.0560591 19.7082C-0.259306 20.9474 0.802306 22 2.07683 22L15.9232 22Z"
        fill="#202020" />
</svg>